<svg xmlns="http://www.w3.org/2000/svg" xmlns:xlink="http://www.w3.org/1999/xlink" width="1024" zoomAndPan="magnify" viewBox="0 0 768 767.999994" height="1024" preserveAspectRatio="xMidYMid meet" version="1.0"><defs><g/></defs><path fill="#1a1a1a" d="M 114.726562 693.316406 L 44.089844 693.316406 C 39.140625 693.316406 35.09375 689.265625 35.09375 684.316406 L 35.09375 472.859375 C 35.09375 467.457031 39.140625 463.859375 44.089844 463.859375 L 114.726562 463.859375 C 119.675781 463.859375 123.726562 467.457031 123.726562 472.859375 L 123.726562 684.316406 C 123.726562 689.265625 119.675781 693.316406 114.726562 693.316406 Z M 53.089844 675.316406 L 105.730469 675.316406 L 105.730469 481.855469 L 53.089844 481.855469 Z M 53.089844 675.316406 " fill-opacity="1" fill-rule="evenodd"/><path fill="#1a1a1a" d="M 266.796875 693.316406 L 196.613281 693.316406 C 191.664062 693.316406 187.613281 689.265625 187.613281 684.316406 L 187.613281 397.273438 C 187.613281 392.324219 191.664062 388.273438 196.613281 388.273438 L 266.796875 388.273438 C 271.746094 388.273438 275.796875 392.324219 275.796875 397.273438 L 275.796875 684.316406 C 275.796875 689.265625 271.746094 693.316406 266.796875 693.316406 Z M 205.609375 675.316406 L 257.800781 675.316406 L 257.800781 406.269531 L 205.609375 406.269531 Z M 205.609375 675.316406 " fill-opacity="1" fill-rule="evenodd"/><path fill="#1a1a1a" d="M 419.316406 693.316406 L 348.683594 693.316406 C 343.734375 693.316406 339.683594 689.265625 339.683594 684.316406 L 339.683594 493.554688 C 339.683594 488.605469 343.734375 484.554688 348.683594 484.554688 L 419.316406 484.554688 C 424.265625 484.554688 428.316406 488.605469 428.316406 493.554688 L 428.316406 684.316406 C 428.316406 689.265625 424.265625 693.316406 419.316406 693.316406 Z M 357.679688 675.316406 L 410.320312 675.316406 L 410.320312 502.550781 L 357.679688 502.550781 Z M 357.679688 675.316406 " fill-opacity="1" fill-rule="evenodd"/><path fill="#1a1a1a" d="M 571.386719 693.316406 L 500.753906 693.316406 C 495.804688 693.316406 491.753906 689.265625 491.753906 684.316406 L 491.753906 332.484375 C 491.753906 327.085938 495.804688 323.488281 500.753906 323.488281 L 571.386719 323.488281 C 576.335938 323.488281 580.386719 327.085938 580.386719 332.484375 L 580.386719 684.316406 C 580.386719 689.265625 576.335938 693.316406 571.386719 693.316406 Z M 509.75 675.316406 L 562.390625 675.316406 L 562.390625 341.484375 L 509.75 341.484375 Z M 509.75 675.316406 " fill-opacity="1" fill-rule="evenodd"/><path fill="#1a1a1a" d="M 723.457031 693.316406 L 653.273438 693.316406 C 648.324219 693.316406 644.273438 689.265625 644.273438 684.316406 L 644.273438 222.707031 C 644.273438 217.757812 648.324219 213.707031 653.273438 213.707031 L 723.457031 213.707031 C 728.40625 213.707031 732.457031 217.757812 732.457031 222.707031 L 732.457031 684.316406 C 732.457031 689.265625 728.40625 693.316406 723.457031 693.316406 Z M 662.269531 675.316406 L 714.460938 675.316406 L 714.460938 231.703125 L 662.269531 231.703125 Z M 662.269531 675.316406 " fill-opacity="1" fill-rule="evenodd"/><path fill="#1a1a1a" d="M 397.273438 342.382812 C 394.121094 342.382812 390.972656 341.035156 389.175781 337.882812 C 386.925781 333.835938 388.273438 327.984375 392.773438 325.738281 L 493.554688 268.597656 C 498.050781 266.347656 503.453125 267.699219 506.152344 272.195312 C 508.402344 276.246094 507.050781 281.644531 502.550781 284.34375 L 401.773438 341.484375 C 399.972656 342.382812 398.621094 342.382812 397.273438 342.382812 Z M 338.332031 340.582031 C 336.535156 340.582031 334.734375 340.132812 333.386719 339.234375 L 237.105469 275.347656 C 233.054688 272.648438 232.15625 267.246094 234.855469 263.199219 C 237.554688 259.148438 242.953125 257.800781 247 260.5 L 343.28125 323.9375 C 347.332031 326.636719 348.230469 332.484375 345.53125 336.535156 C 344.183594 339.234375 341.035156 340.582031 338.332031 340.582031 Z M 78.734375 338.785156 C 76.035156 338.785156 72.886719 337.433594 71.085938 334.285156 C 68.835938 330.234375 70.1875 324.835938 74.234375 322.136719 L 179.066406 259.148438 C 183.5625 256.449219 188.964844 257.800781 191.664062 262.296875 C 193.914062 266.347656 192.5625 271.746094 188.511719 274.445312 L 83.683594 337.433594 C 81.882812 338.332031 80.535156 338.785156 78.734375 338.785156 Z M 549.34375 241.152344 C 547.542969 241.152344 545.742188 240.253906 543.945312 239.351562 C 539.894531 236.203125 539.445312 230.355469 542.144531 226.753906 L 643.375 96.28125 C 646.074219 92.230469 651.921875 91.78125 655.972656 94.480469 C 659.570312 97.632812 660.472656 103.480469 657.320312 107.078125 L 556.542969 237.554688 C 554.742188 239.804688 552.042969 241.152344 549.34375 241.152344 Z M 549.34375 241.152344 " fill-opacity="1" fill-rule="evenodd"/><path fill="#1a1a1a" d="M 213.257812 292.441406 C 189.414062 292.441406 169.617188 273.097656 169.617188 248.800781 C 169.617188 224.957031 189.414062 205.609375 213.257812 205.609375 C 237.554688 205.609375 256.898438 224.957031 256.898438 248.800781 C 256.898438 273.097656 237.554688 292.441406 213.257812 292.441406 Z M 213.257812 223.605469 C 199.3125 223.605469 187.613281 234.855469 187.613281 248.800781 C 187.613281 263.199219 199.3125 274.445312 213.257812 274.445312 C 227.65625 274.445312 238.902344 263.199219 238.902344 248.800781 C 238.902344 234.855469 227.65625 223.605469 213.257812 223.605469 Z M 213.257812 223.605469 " fill-opacity="1" fill-rule="evenodd"/><path fill="#1a1a1a" d="M 49.039062 391.421875 C 25.195312 391.421875 5.847656 371.628906 5.847656 347.78125 C 5.847656 323.488281 25.195312 304.140625 49.039062 304.140625 C 73.335938 304.140625 92.683594 323.488281 92.683594 347.78125 C 92.683594 371.628906 73.335938 391.421875 49.039062 391.421875 Z M 49.039062 322.136719 C 35.09375 322.136719 23.84375 333.386719 23.84375 347.78125 C 23.84375 361.730469 35.09375 373.425781 49.039062 373.425781 C 63.4375 373.425781 74.683594 361.730469 74.683594 347.78125 C 74.683594 333.386719 63.4375 322.136719 49.039062 322.136719 Z M 49.039062 322.136719 " fill-opacity="1" fill-rule="evenodd"/><path fill="#1a1a1a" d="M 367.128906 394.121094 C 342.832031 394.121094 323.488281 374.777344 323.488281 350.480469 C 323.488281 326.636719 342.832031 306.839844 367.128906 306.839844 C 390.972656 306.839844 410.769531 326.636719 410.769531 350.480469 C 410.769531 374.777344 390.972656 394.121094 367.128906 394.121094 Z M 367.128906 324.835938 C 352.730469 324.835938 341.484375 336.535156 341.484375 350.480469 C 341.484375 364.878906 353.179688 376.125 367.128906 376.125 C 381.074219 376.125 392.773438 364.878906 392.773438 350.480469 C 392.773438 336.535156 381.074219 324.835938 367.128906 324.835938 Z M 367.128906 324.835938 " fill-opacity="1" fill-rule="evenodd"/><path fill="#1a1a1a" d="M 528.195312 302.789062 C 504.351562 302.789062 484.554688 283.445312 484.554688 259.597656 C 484.554688 235.304688 504.351562 215.957031 528.195312 215.957031 C 552.492188 215.957031 571.839844 235.304688 571.839844 259.597656 C 571.839844 283.445312 552.492188 302.789062 528.195312 302.789062 Z M 528.195312 233.953125 C 514.25 233.953125 502.550781 245.203125 502.550781 259.597656 C 502.550781 273.546875 514.25 284.792969 528.195312 284.792969 C 542.144531 284.792969 553.84375 273.546875 553.84375 259.597656 C 553.84375 245.203125 542.144531 233.953125 528.195312 233.953125 Z M 528.195312 233.953125 " fill-opacity="1" fill-rule="evenodd"/><path fill="#1a1a1a" d="M 671.71875 117.878906 C 647.421875 117.878906 628.078125 98.53125 628.078125 74.234375 C 628.078125 50.390625 647.421875 31.042969 671.71875 31.042969 C 695.5625 31.042969 714.910156 50.390625 714.910156 74.234375 C 714.910156 98.53125 695.5625 117.878906 671.71875 117.878906 Z M 671.71875 49.039062 C 657.320312 49.039062 646.074219 60.289062 646.074219 74.234375 C 646.074219 88.632812 657.320312 99.878906 671.71875 99.878906 C 685.667969 99.878906 696.914062 88.632812 696.914062 74.234375 C 696.914062 60.289062 685.667969 49.039062 671.71875 49.039062 Z M 671.71875 49.039062 " fill-opacity="1" fill-rule="evenodd"/><path fill="#1a1a1a" d="M 380.625 251.050781 C 313.589844 251.050781 259.148438 196.613281 259.148438 129.574219 C 259.148438 62.988281 313.589844 8.546875 380.625 8.546875 C 447.664062 8.546875 502.101562 62.988281 502.101562 129.574219 C 502.101562 196.613281 447.664062 251.050781 380.625 251.050781 Z M 380.625 26.542969 C 323.9375 26.542969 277.144531 72.886719 277.144531 129.574219 C 277.144531 186.714844 323.9375 233.054688 380.625 233.054688 C 437.765625 233.054688 484.105469 186.714844 484.105469 129.574219 C 484.105469 72.886719 437.765625 26.542969 380.625 26.542969 Z M 380.625 26.542969 " fill-opacity="1" fill-rule="evenodd"/><path fill="#1a1a1a" d="M 380.625 208.308594 C 356.78125 208.308594 336.984375 188.511719 336.984375 164.667969 C 336.984375 159.71875 341.035156 155.667969 345.980469 155.667969 C 350.929688 155.667969 354.980469 159.71875 354.980469 164.667969 C 354.980469 178.613281 366.679688 190.3125 380.625 190.3125 C 395.023438 190.3125 406.71875 178.613281 406.71875 164.667969 C 406.71875 146.222656 397.273438 143.070312 378.824219 138.574219 C 361.28125 134.523438 336.984375 128.675781 336.984375 94.929688 C 336.984375 71.085938 356.78125 51.289062 380.625 51.289062 C 404.921875 51.289062 424.71875 71.085938 424.71875 94.929688 C 424.71875 99.878906 420.667969 103.929688 415.71875 103.929688 C 410.769531 103.929688 406.71875 99.878906 406.71875 94.929688 C 406.71875 80.984375 395.023438 69.285156 380.625 69.285156 C 366.679688 69.285156 354.980469 80.984375 354.980469 94.929688 C 354.980469 113.378906 363.980469 116.527344 382.875 121.027344 C 400.421875 125.074219 424.71875 130.925781 424.71875 164.667969 C 424.71875 188.511719 404.921875 208.308594 380.625 208.308594 Z M 380.625 208.308594 " fill-opacity="1" fill-rule="evenodd"/><path fill="#1a1a1a" d="M 380.625 221.355469 C 375.675781 221.355469 371.628906 217.308594 371.628906 212.359375 L 371.628906 47.242188 C 371.628906 42.292969 375.675781 38.242188 380.625 38.242188 C 385.574219 38.242188 389.625 42.292969 389.625 47.242188 L 389.625 212.359375 C 389.625 217.308594 385.574219 221.355469 380.625 221.355469 Z M 380.625 221.355469 " fill-opacity="1" fill-rule="evenodd"/><path fill="#1a1a1a" d="M 759 759.453125 L 9 759.453125 C 4.050781 759.453125 0 755.402344 0 750.453125 L 0 684.316406 C 0 679.367188 4.050781 675.316406 9 675.316406 L 759 675.316406 C 763.949219 675.316406 767.550781 679.367188 767.550781 684.316406 L 767.550781 750.453125 C 768 755.402344 763.949219 759.453125 759 759.453125 Z M 17.996094 741.457031 L 750.003906 741.457031 L 750.003906 693.316406 L 17.996094 693.316406 Z M 17.996094 741.457031 " fill-opacity="1" fill-rule="evenodd"/><g fill="#000000" fill-opacity="1"><g transform="translate(330.410142, 376.727082)"><g><path d="M 26.703125 -29.671875 L 47.65625 -29.671875 L 47.65625 -2.28125 C 44.257812 -1.164062 41.0625 -0.390625 38.0625 0.046875 C 35.0625 0.492188 32 0.71875 28.875 0.71875 C 20.894531 0.71875 14.800781 -1.617188 10.59375 -6.296875 C 6.394531 -10.984375 4.296875 -17.710938 4.296875 -26.484375 C 4.296875 -35.015625 6.734375 -41.660156 11.609375 -46.421875 C 16.492188 -51.191406 23.257812 -53.578125 31.90625 -53.578125 C 37.320312 -53.578125 42.550781 -52.492188 47.59375 -50.328125 L 43.859375 -41.375 C 40.003906 -43.300781 35.992188 -44.265625 31.828125 -44.265625 C 26.992188 -44.265625 23.117188 -42.632812 20.203125 -39.375 C 17.285156 -36.125 15.828125 -31.753906 15.828125 -26.265625 C 15.828125 -20.535156 17 -16.15625 19.34375 -13.125 C 21.695312 -10.101562 25.113281 -8.59375 29.59375 -8.59375 C 31.925781 -8.59375 34.300781 -8.835938 36.71875 -9.328125 L 36.71875 -20.34375 L 26.703125 -20.34375 Z M 26.703125 -29.671875 "/></g></g></g></svg>